<?xml version="1.0" standalone="no"?>
<!DOCTYPE svg PUBLIC "-//W3C//DTD SVG 20010904//EN"
 "http://www.w3.org/TR/2001/REC-SVG-20010904/DTD/svg10.dtd">
<svg version="1.0" xmlns="http://www.w3.org/2000/svg"
 width="1080.000000pt" height="1080.000000pt" viewBox="0 0 1080.000000 1080.000000"
 preserveAspectRatio="xMidYMid meet">
<metadata>
Created by potrace 1.16, written by Peter Selinger 2001-2019
</metadata>
<g transform="translate(0.000000,1080.000000) scale(0.100000,-0.100000)"
fill="#000000" stroke="none">
<path d="M5360 9696 c0 -18 -9 -183 -21 -366 -11 -183 -19 -334 -17 -335 2 -2
26 -5 53 -6 l50 -3 7 108 c3 59 8 109 10 111 2 2 54 1 115 -2 l112 -6 73 -118
c71 -117 73 -119 109 -119 21 0 44 -3 53 -6 28 -11 18 13 -58 135 l-74 120 54
30 c62 36 98 85 114 156 21 92 -7 184 -74 242 -59 53 -126 71 -302 82 -221 15
-204 17 -204 -23z m362 -87 c81 -21 125 -89 115 -176 -5 -49 -27 -85 -70 -117
-32 -24 -118 -32 -240 -21 l-82 6 7 112 c3 62 7 136 7 166 l1 54 113 -7 c61
-4 129 -11 149 -17z"/>
<path d="M4833 9681 c-133 -20 -245 -39 -248 -42 -3 -4 15 -148 40 -320 25
-173 49 -335 52 -361 3 -27 11 -48 17 -48 6 0 126 18 266 38 l255 38 -3 40
c-2 21 -7 42 -10 45 -4 4 -92 -6 -197 -22 -104 -16 -199 -28 -210 -26 -18 2
-22 16 -36 112 -9 61 -14 112 -12 114 2 3 83 17 181 31 l177 26 -3 40 c-2 21
-6 41 -8 44 -3 2 -85 -7 -182 -22 -97 -14 -178 -24 -180 -23 -6 5 -36 215 -31
219 2 2 93 17 202 33 108 17 199 32 201 34 9 9 -7 89 -18 88 -6 -1 -120 -18
-253 -38z"/>
<path d="M6201 9581 c-77 -253 -191 -644 -189 -646 17 -10 92 -25 98 -18 4 4
41 119 81 256 40 136 75 247 79 247 3 0 64 -142 134 -315 71 -173 135 -320
142 -326 7 -5 27 -12 46 -15 l33 -5 103 351 c57 193 102 353 100 354 -1 2 -24
10 -49 19 l-47 15 -78 -263 c-43 -145 -80 -262 -82 -261 -1 2 -63 149 -135
326 l-133 323 -41 12 -42 13 -20 -67z"/>
<path d="M4224 9561 l-40 -18 -33 -234 c-19 -129 -39 -262 -45 -297 l-11 -63
-239 180 c-131 100 -242 181 -246 181 -4 0 -23 -7 -43 -15 l-35 -14 138 -338
c88 -214 144 -339 153 -341 9 -2 31 5 50 15 l34 18 -98 239 c-54 132 -97 241
-95 243 1 2 92 -64 202 -147 109 -82 206 -150 214 -150 8 0 20 4 26 8 10 6 47
226 79 466 4 26 10 44 15 40 4 -5 52 -115 105 -246 l97 -236 36 15 c21 8 41
19 46 23 7 7 -114 315 -258 662 l-12 27 -40 -18z"/>
<path d="M7314 9116 c-68 -30 -120 -130 -105 -199 13 -53 35 -87 126 -190 116
-133 130 -174 76 -228 -22 -22 -39 -29 -68 -29 -89 0 -229 106 -269 202 -10
27 -21 48 -24 48 -3 0 -22 -10 -43 -23 l-37 -23 27 -54 c38 -76 125 -160 213
-204 146 -73 272 -39 325 88 31 75 5 138 -113 271 -123 139 -135 174 -78 231
42 42 79 44 152 10 64 -30 115 -75 155 -136 l32 -49 33 26 c19 14 34 28 34 31
0 20 -58 98 -101 135 -79 69 -151 101 -234 105 -44 1 -81 -3 -101 -12z"/>
<path d="M7890 8679 l-35 -40 -36 30 -36 30 -29 -30 -29 -30 37 -32 37 -32
-110 -120 c-117 -128 -149 -176 -149 -224 0 -78 68 -158 157 -185 19 -6 25 -1
38 30 8 20 14 38 13 38 -73 27 -116 74 -105 118 4 14 57 82 119 151 l111 126
61 -55 61 -55 28 31 27 31 -60 56 -61 56 43 44 43 45 -35 29 c-19 16 -39 29
-45 29 -5 -1 -26 -19 -45 -41z"/>
<path d="M2729 8449 c-29 -41 -48 -108 -41 -144 l5 -29 -32 27 c-18 15 -36 27
-39 26 -4 0 -19 -15 -35 -34 l-28 -33 203 -191 203 -191 35 35 35 36 -127 122
c-107 104 -128 129 -138 167 -15 54 -2 104 37 151 l27 31 -35 29 c-19 16 -37
29 -41 29 -4 0 -16 -14 -29 -31z"/>
<path d="M3399 8456 c-37 -18 -50 -53 -35 -90 25 -61 108 -57 130 7 18 51 -46
108 -95 83z"/>
<path d="M8100 8264 c-7 -19 -10 -36 -8 -38 1 -1 23 -11 47 -21 58 -25 128
-96 142 -145 15 -48 6 -81 -29 -121 l-28 -32 -49 59 c-117 141 -161 174 -233
174 -74 0 -152 -78 -152 -152 0 -102 116 -238 204 -238 l29 0 -21 -23 c-29
-30 -28 -38 7 -71 l29 -28 144 120 c78 65 151 128 160 138 25 29 48 89 48 127
0 83 -107 224 -205 268 -58 27 -72 24 -85 -17z m-86 -235 c17 -12 57 -54 89
-93 l59 -70 -32 -29 c-29 -26 -38 -29 -86 -25 -65 6 -113 40 -143 102 -26 52
-21 87 16 116 33 26 59 25 97 -1z"/>
<path d="M2379 8002 c-67 -35 -121 -104 -144 -184 -27 -98 -6 -176 70 -257
122 -130 302 -129 424 4 65 71 104 180 88 247 -6 21 -11 23 -47 20 l-40 -4 0
-44 c0 -120 -112 -232 -222 -222 -27 3 -53 9 -58 14 -6 6 40 81 115 189 69 99
125 185 125 192 0 6 -28 25 -62 42 -84 43 -172 44 -249 3z m191 -78 c10 -10
-178 -293 -195 -293 -15 0 -42 41 -55 85 -21 72 18 158 95 206 23 15 43 18 88
15 31 -2 62 -8 67 -13z"/>
<path d="M8377 7726 c-125 -46 -197 -146 -197 -272 0 -137 100 -267 223 -289
l38 -7 -3 47 c-3 45 -5 48 -41 60 -96 33 -152 149 -116 242 26 71 119 133 199
133 114 0 209 -122 180 -231 -6 -23 -10 -42 -8 -44 15 -13 70 -35 78 -30 18
11 32 79 27 130 -10 96 -74 194 -158 239 -63 35 -162 44 -222 22z"/>
<path d="M2094 7464 c-58 -21 -115 -73 -149 -135 -24 -44 -29 -66 -30 -119 0
-36 4 -77 9 -92 l8 -28 -36 15 -36 15 -21 -41 c-11 -23 -17 -45 -12 -48 13
-12 677 -301 690 -301 8 0 43 67 43 84 0 2 -59 29 -130 61 l-131 58 38 17
c160 73 197 319 66 442 -77 73 -218 106 -309 72z m141 -95 c53 -13 122 -70
141 -116 41 -97 -18 -220 -120 -253 -73 -23 -173 11 -223 76 -21 29 -28 50
-31 100 -4 54 -1 70 21 107 48 81 118 110 212 86z"/>
<path d="M8735 7173 c-198 -70 -362 -128 -364 -129 -7 -6 22 -94 31 -94 5 0
38 10 73 22 l64 22 71 -34 c48 -23 69 -38 65 -48 -3 -8 -42 -73 -86 -145 l-81
-130 18 -53 c10 -30 21 -54 25 -54 3 0 55 77 113 170 59 94 109 170 112 170 2
0 68 -32 145 -71 78 -38 143 -69 145 -67 2 2 -6 28 -17 58 l-20 55 -179 95
c-98 52 -176 98 -172 101 4 3 108 41 232 84 124 43 226 79 227 80 6 3 -29 95
-35 94 -4 0 -169 -57 -367 -126z"/>
<path d="M1897 6796 c-141 -38 -238 -197 -208 -344 22 -109 91 -186 194 -217
165 -49 312 31 361 195 33 110 9 214 -66 287 -54 51 -87 68 -163 82 -68 13
-57 13 -118 -3z m158 -115 c102 -47 141 -148 96 -246 -52 -112 -183 -146 -293
-76 -113 72 -109 247 7 317 50 30 131 32 190 5z"/>
<path d="M8955 6240 c-187 -9 -342 -18 -344 -19 -8 -2 9 -342 20 -394 25 -119
105 -223 207 -270 69 -32 236 -32 306 1 82 38 132 85 171 165 45 91 50 134 40
361 l-7 176 -27 -1 c-14 -1 -179 -10 -366 -19z m310 -209 c8 -136 2 -187 -31
-252 -47 -94 -128 -141 -244 -142 -89 -1 -152 24 -201 81 -56 63 -70 111 -80
261 -4 74 -6 137 -4 139 2 3 118 10 257 17 139 7 263 13 274 14 21 1 22 -5 29
-118z"/>
<path d="M1395 6087 c-4 -26 -5 -50 -4 -51 2 -2 155 -15 339 -30 184 -15 361
-30 393 -33 l57 -6 0 52 c0 28 -3 51 -7 52 -5 0 -180 15 -390 32 l-382 33 -6
-49z"/>
<path d="M1810 5851 c-133 -41 -207 -145 -203 -283 3 -102 57 -189 147 -236
43 -22 63 -26 136 -26 91 0 133 15 198 69 72 61 106 194 78 306 -15 60 -60
139 -83 146 -6 2 -25 -8 -42 -23 l-31 -26 29 -33 c79 -90 60 -246 -38 -312
-66 -45 -68 -42 -75 135 -4 86 -9 187 -13 225 l-6 67 -36 -1 c-20 0 -47 -4
-61 -8z m34 -153 c14 -164 17 -298 6 -298 -18 0 -83 30 -104 48 -46 41 -69
138 -45 199 18 48 90 110 131 113 3 0 9 -28 12 -62z"/>
<path d="M8760 5435 c-164 -52 -250 -294 -159 -444 l20 -33 32 21 c35 23 36
25 11 95 -33 94 13 214 98 255 42 20 88 28 88 15 0 -3 -16 -101 -35 -217 -20
-115 -33 -217 -30 -225 9 -23 158 -12 211 16 160 83 194 324 63 449 -73 69
-205 99 -299 68z m239 -142 c106 -102 52 -282 -91 -308 -29 -6 -38 -4 -38 6 0
8 12 87 26 177 31 185 35 189 103 125z"/>
<path d="M1645 5163 c4 -27 8 -49 9 -50 1 -1 107 -23 235 -47 128 -25 235 -47
238 -49 2 -3 -84 -69 -192 -147 -127 -91 -195 -147 -191 -155 3 -8 8 -30 12
-49 3 -20 8 -36 10 -36 2 0 114 82 249 181 152 113 244 187 241 195 -3 7 -8
28 -11 48 -4 20 -14 37 -24 40 -9 3 -137 28 -286 56 -148 28 -276 53 -284 56
-11 3 -12 -5 -6 -43z"/>
<path d="M8752 4745 c-161 -12 -294 -24 -295 -26 -2 -2 -11 -24 -20 -49 l-17
-44 27 -27 c167 -162 418 -388 423 -382 4 4 13 24 19 44 l12 36 -78 75 c-43
41 -121 114 -173 164 -52 49 -96 92 -98 95 -1 3 96 11 215 18 278 15 267 13
282 60 13 45 14 62 4 60 -5 -1 -140 -12 -301 -24z"/>
<path d="M2226 4663 c-17 -36 -17 -38 -1 -48 101 -59 151 -185 111 -278 -13
-31 -72 -95 -79 -86 -2 2 -41 94 -86 204 -46 110 -86 203 -90 207 -12 13 -94
-35 -138 -79 -105 -108 -93 -289 27 -397 56 -51 97 -66 173 -66 83 0 145 22
203 73 116 102 126 274 24 417 -20 28 -102 90 -120 90 -4 0 -14 -17 -24 -37z
m-103 -283 c45 -108 61 -157 53 -162 -30 -20 -118 3 -159 40 -57 51 -74 158
-36 222 24 40 61 72 71 62 4 -4 36 -77 71 -162z"/>
<path d="M8353 4294 c-60 -22 -134 -92 -168 -160 -23 -45 -31 -75 -33 -129 -3
-86 2 -96 51 -88 l37 6 0 59 c0 32 6 73 14 92 19 46 75 107 113 122 35 15 111
18 130 6 8 -5 -23 -68 -98 -202 l-111 -195 22 -17 c27 -22 112 -48 155 -48
137 0 257 116 272 262 11 108 -50 214 -157 272 -65 36 -162 44 -227 20z m267
-181 c37 -54 36 -144 -2 -199 -38 -54 -82 -78 -145 -79 -29 0 -56 5 -62 10
-13 13 155 316 172 309 7 -2 23 -21 37 -41z"/>
<path d="M2340 4071 c-106 -34 -206 -119 -248 -209 -38 -81 -38 -200 -1 -288
23 -56 222 -354 236 -354 17 0 602 417 598 427 -10 29 -194 283 -235 324 -70
70 -147 104 -245 106 -44 1 -91 -1 -105 -6z m223 -125 c53 -30 112 -95 183
-198 l52 -75 -219 -152 c-120 -83 -225 -154 -232 -157 -17 -6 -141 175 -167
245 -56 145 19 296 177 356 57 22 152 13 206 -19z"/>
<path d="M7977 3815 c-15 -19 -27 -38 -27 -43 0 -5 140 -115 311 -243 l311
-233 19 25 c47 58 63 40 -263 285 -167 125 -308 231 -313 235 -7 5 -22 -6 -38
-26z"/>
<path d="M7790 3553 c-65 -24 -152 -114 -175 -182 -21 -65 -17 -159 10 -216
25 -51 88 -115 140 -140 56 -28 184 -28 240 0 52 25 125 99 150 150 24 51 31
143 15 201 -17 60 -78 136 -136 170 -59 35 -174 43 -244 17z m179 -98 c73 -37
130 -140 115 -208 -22 -104 -125 -179 -220 -161 -43 8 -110 57 -141 103 -68
101 -12 241 115 281 33 11 95 4 131 -15z"/>
<path d="M7263 3367 c-18 -12 -33 -25 -33 -29 0 -4 34 -57 75 -117 41 -60 75
-111 75 -114 0 -2 -20 -2 -44 0 -61 7 -135 -20 -192 -70 -127 -112 -127 -297
1 -421 61 -59 115 -79 202 -74 119 7 204 66 247 172 l24 58 18 -31 c10 -17 21
-31 24 -31 3 0 22 11 43 25 l37 26 -171 252 c-94 139 -190 280 -213 314 -22
35 -45 62 -51 62 -5 0 -25 -10 -42 -22z m178 -371 c118 -78 124 -255 12 -326
-80 -51 -161 -47 -227 11 -89 77 -101 204 -28 283 65 69 166 83 243 32z"/>
<path d="M3123 3274 c-63 -23 -128 -86 -164 -159 -29 -59 -31 -72 -27 -133 6
-76 23 -115 76 -174 49 -54 122 -88 190 -88 l52 0 -90 -115 c-49 -63 -90 -119
-90 -124 0 -15 71 -64 80 -55 30 34 470 606 470 612 0 10 -56 52 -69 52 -5 0
-18 -11 -29 -25 -25 -32 -32 -32 -32 2 0 66 -66 150 -153 194 -54 28 -156 34
-214 13z m180 -98 c39 -17 92 -71 106 -109 34 -90 -28 -221 -122 -256 -67 -26
-141 -9 -196 42 -60 57 -76 131 -45 205 19 46 69 100 109 118 39 17 107 18
148 0z"/>
<path d="M3697 2914 c-11 -4 -16 -12 -13 -22 3 -9 8 -29 11 -43 6 -25 9 -26
43 -18 131 29 277 -97 256 -223 l-6 -37 -200 100 c-110 55 -205 98 -210 97
-21 -7 -47 -93 -47 -158 -1 -155 119 -273 279 -274 83 0 144 28 204 95 172
192 41 477 -224 485 -41 2 -83 0 -93 -2z m239 -429 c-23 -35 -96 -67 -141 -62
-120 13 -198 114 -171 221 l6 25 160 -82 c149 -77 158 -83 146 -102z"/>
<path d="M6689 2796 c-89 -24 -166 -83 -204 -157 -15 -28 -15 -29 25 -49 l39
-20 15 28 c23 45 81 90 138 107 61 18 62 18 111 4 35 -9 107 -62 107 -78 0 -4
-92 -47 -205 -95 -113 -49 -205 -93 -205 -100 0 -24 61 -116 93 -140 108 -82
257 -76 360 15 128 112 123 312 -10 429 -73 64 -164 83 -264 56z m271 -293 c0
-70 -33 -120 -100 -156 -45 -24 -63 -28 -99 -23 -50 7 -102 36 -124 69 -15 23
-15 23 136 89 84 36 160 66 170 67 14 1 17 -7 17 -46z"/>
<path d="M4396 2638 c-60 -96 -376 -638 -376 -646 0 -9 89 -28 94 -20 1 2 74
124 162 271 87 148 160 265 161 260 2 -4 19 -145 38 -313 35 -301 39 -319 75
-320 8 0 24 -3 35 -6 18 -4 43 31 185 265 90 149 165 270 166 268 1 -1 16
-132 33 -292 18 -159 34 -299 36 -311 3 -15 17 -23 52 -31 26 -6 50 -10 52 -7
2 2 -15 171 -38 376 -23 205 -41 378 -41 385 0 9 -78 33 -109 33 -5 0 -80
-119 -167 -265 -87 -146 -160 -262 -161 -258 -2 8 -73 596 -73 606 0 4 -89 27
-105 27 -3 0 -11 -10 -19 -22z"/>
<path d="M6252 2639 c-25 -7 -32 -14 -28 -27 29 -96 76 -294 76 -320 0 -71
-54 -140 -124 -158 -27 -6 -28 -9 -22 -47 9 -55 12 -57 49 -45 44 15 96 55
116 89 21 38 27 36 35 -6 8 -38 13 -40 69 -24 29 8 37 14 33 27 -3 9 -28 107
-56 217 -77 297 -79 305 -98 304 -9 0 -32 -5 -50 -10z"/>
<path d="M5612 2523 c-24 -20 -29 -46 -19 -85 14 -54 104 -54 127 1 28 69 -52
131 -108 84z"/>
</g>
</svg>
